#!OML:ASF F:\VICON\USERDATA\INSTALL\rory3\rory3.ASF
:FULLY-SPECIFIED
:DEGREES
1108
root 4.5944 17.8863 2.75254 3.56094 37.6913 2.98164
lowerback 5.90893 0.251225 -1.54998
upperback 1.52206 0.265163 0.620049
thorax -1.75515 0.141704 1.48808
lowerneck -21.4676 -3.93995 -12.8727
upperneck 27.7723 -1.66402 2.77925
head 13.1004 -1.67944 2.96696
rclavicle -5.36719e-014 1.43125e-014
rhumerus -25.6201 11.2817 -89.2636
rradius 33.8512
rwrist 20.8532
rhand -15.6685 5.1883
rfingers 7.12502
rthumb 10.52 -24.5284
lclavicle -5.36719e-014 1.43125e-014
lhumerus -32.7562 -0.830247 88.1275
lradius 34.1539
lwrist -3.29531
lhand -3.27225 29.462
lfingers 7.12502
lthumb 22.4527 58.1769
rfemur -23.1283 -3.07609 19.5162
rtibia 29.6845
rfoot -8.41203 -8.74574
rtoes 22.6539
lfemur -7.86745 -4.1561 -15.4143
ltibia 39.1699
lfoot -5.46945 -14.7545
ltoes -29.3661
1109
root 4.57659 17.884 2.79971 3.48145 37.7836 2.97343
lowerback 5.86706 0.22571 -1.52685
upperback 1.50115 0.233001 0.623222
thorax -1.75205 0.125636 1.48076
lowerneck -21.6263 -4.07296 -12.9338
upperneck 27.6722 -1.9028 3.05083
head 13.1147 -1.75096 3.03984
rclavicle -6.98728e-014 1.63003e-014
rhumerus -25.2123 11.5599 -88.8796
rradius 33.9276
rwrist 20.9076
rhand -15.6988 5.32078
rfingers 7.12502
rthumb 10.4907 -24.3975
lclavicle -6.98728e-014 1.63003e-014
lhumerus -32.5243 -1.19825 87.5788
lradius 34.5176
lwrist -3.38997
lhand -1.76626 28.5118
lfingers 7.12502
lthumb 23.8976 57.0449
rfemur -22.983 -3.2737 19.6971
rtibia 29.7583
rfoot -8.45744 -8.61433
rtoes 22.3429
lfemur -8.01516 -4.15521 -15.2155
ltibia 39.6414
lfoot -4.94478 -14.8975
ltoes -29.1218
1110
root 4.55556 17.8863 2.84218 3.39069 37.8465 2.85557
lowerback 5.75689 0.203998 -1.38567
upperback 1.51643 0.213614 0.60824
thorax -1.67372 0.114791 1.38761
lowerneck -21.877 -4.20347 -13.049
upperneck 27.5677 -2.14881 3.46212
head 13.1491 -1.81193 3.17544
rclavicle 6.09275e-014 1.59028e-015
rhumerus -24.6208 11.9248 -88.5022
rradius 33.9441
rwrist 20.7215
rhand -15.8974 5.65604
rfingers 7.12502
rthumb 10.2992 -24.0718
lclavicle 6.09275e-014 1.59028e-015
lhumerus -32.0614 -1.57636 86.9116
lradius 34.6973
lwrist -3.22742
lhand -0.910436 27.5263
lfingers 7.12502
lthumb 24.7181 55.9495
rfemur -22.918 -3.37911 19.9746
rtibia 29.8402
rfoot -8.49025 -8.56804
rtoes 21.9707
lfemur -8.30551 -4.01274 -14.9219
ltibia 40.1566
lfoot -4.41403 -15.1112
ltoes -29.2195
1111
root 4.53334 17.8865 2.87943 3.3065 38.0312 2.76122
lowerback 5.62214 0.107312 -1.27752
upperback 1.58484 0.0934141 0.613992
thorax -1.52403 0.0531467 1.34128
lowerneck -22.1545 -4.31962 -13.2499
upperneck 27.3857 -2.37454 3.9849
head 13.1589 -1.85505 3.37151
rclavicle 1.05555e-013 -1.74931e-014
rhumerus -23.8949 12.5646 -88.0634
rradius 34.0378
rwrist 20.2285
rhand -16.0451 5.75491
rfingers 7.12502
rthumb 10.1566 -23.9799
lclavicle 1.05555e-013 -1.74931e-014
lhumerus -31.4285 -1.83654 86.1541
lradius 34.8335
lwrist -3.17459
lhand -0.103851 26.5074
lfingers 7.12502
lthumb 25.4909 54.8224
rfemur -22.8295 -3.55464 20.2187
rtibia 29.8861
rfoot -8.5992 -8.52342
rtoes 21.7342
lfemur -8.68768 -3.92471 -14.6492
ltibia 40.7231
lfoot -3.80486 -15.3656
ltoes -29.2943
1112
root 4.51263 17.8836 2.9178 3.25057 38.2818 2.78753
lowerback 5.53904 -0.0267482 -1.27968
upperback 1.61596 -0.084391 0.588454
thorax -1.43993 -0.036343 1.3281
lowerneck -22.3633 -4.44557 -13.2688
upperneck 27.246 -2.63617 4.33606
head 13.1727 -1.91946 3.46372
rclavicle 2.08227e-014 4.77083e-015
rhumerus -23.2327 13.5159 -87.6163
rradius 34.2164
rwrist 19.618
rhand -15.8403 5.71111
rfingers 7.12502
rthumb 10.3542 -24.014
lclavicle 2.08227e-014 4.77083e-015
lhumerus -30.8032 -2.1709 85.3292
lradius 34.9913
lwrist -3.19845
lhand 0.370765 25.9115
lfingers 7.12502
lthumb 25.9455 54.1608
rfemur -22.6737 -3.75525 20.3401
rtibia 29.9027
rfoot -8.70831 -8.47807
rtoes 21.6272
lfemur -9.00717 -3.97632 -14.4994
ltibia 41.3247
lfoot -3.14024 -15.5114
ltoes -28.5695
1113
root 4.48896 17.8805 2.9548 3.16995 38.5647 2.73435
lowerback 5.46048 -0.166464 -1.27108
upperback 1.62971 -0.26849 0.609266
thorax -1.37595 -0.128806 1.35645
lowerneck -22.3362 -4.58114 -12.941
upperneck 26.7919 -2.92249 4.19344
head 12.9994 -2.01829 3.29004
rclavicle 1.54058e-015 9.14409e-015
rhumerus -22.5467 14.7624 -87.0567
rradius 34.4543
rwrist 18.8453
rhand -15.4263 5.73418
rfingers 7.12502
rthumb 10.7536 -23.9706
lclavicle 1.54058e-015 9.14409e-015
lhumerus -30.1751 -2.79118 84.5668
lradius 35.328
lwrist -2.83363
lhand 0.469432 25.7896
lfingers 7.12502
lthumb 26.0399 54.025
rfemur -22.5662 -3.89906 20.5207
rtibia 29.9244
rfoot -8.79439 -8.52618
rtoes 21.695
lfemur -9.34858 -4.0574 -14.2781
ltibia 41.9351
lfoot -2.57382 -15.6181
ltoes -28.0254
1114
root 4.45873 17.8783 2.98617 3.06274 38.946 2.59978
lowerback 5.34924 -0.330039 -1.27911
upperback 1.68669 -0.483589 0.684618
thorax -1.24756 -0.237471 1.45113
lowerneck -22.1163 -4.71858 -12.2908
upperneck 26.0161 -3.22534 3.62144
head 12.6452 -2.14419 2.8892
rclavicle -6.93262e-014 1.98785e-014
rhumerus -21.6392 16.048 -86.2907
rradius 34.6817
rwrist 18.0844
rhand -15.0486 5.98219
rfingers 7.12502
rthumb 11.1178 -23.7033
lclavicle -6.93262e-014 1.98785e-014
lhumerus -29.4613 -3.74696 83.7904
lradius 35.8599
lwrist -2.35511
lhand 0.567151 25.9628
lfingers 7.12502
lthumb 26.1335 54.1844
rfemur -22.5028 -4.17421 20.796
rtibia 29.9466
rfoot -8.84931 -8.5917
rtoes 21.6831
lfemur -9.7807 -4.19713 -13.9664
ltibia 42.5297
lfoot -1.99054 -15.7425
ltoes -27.6816
1115
root 4.43095 17.8786 3.01687 2.93662 39.261 2.55582
lowerback 5.25486 -0.482186 -1.38643
upperback 1.7647 -0.688882 0.747407
thorax -1.10555 -0.34165 1.58712
lowerneck -22.0782 -4.85347 -12.0252
upperneck 25.5464 -3.4994 3.52788
head 12.4652 -2.24096 2.75329
rclavicle 9.79014e-014 -1.98785e-015
rhumerus -20.5368 17.2581 -85.3311
rradius 34.7751
rwrist 17.6622
rhand -14.4562 6.36747
rfingers 7.12502
rthumb 11.6892 -23.2864
lclavicle 9.79014e-014 -1.98785e-015
lhumerus -28.7059 -4.77425 82.8059
lradius 36.3265
lwrist -2.24141
lhand 0.541091 25.821
lfingers 7.12502
lthumb 26.1085 54.0463
rfemur -22.335 -4.37304 20.9563
rtibia 29.95
rfoot -8.97828 -8.62224
rtoes 21.833
lfemur -10.0992 -4.2873 -13.7726
ltibia 43.1111
lfoot -1.47181 -15.7719
ltoes -27.2797
1116
root 4.40603 17.8778 3.04468 2.78538 39.453 2.53093
lowerback 5.20926 -0.581499 -1.46342
upperback 1.7999 -0.823405 0.793139
thorax -1.03705 -0.409806 1.68454
lowerneck -22.1867 -5.00359 -12.1768
upperneck 25.4205 -3.76906 3.9294
head 12.4714 -2.31867 2.88317
rclavicle 4.58199e-014 -5.56597e-015
rhumerus -19.343 18.4203 -84.1638
rradius 34.8169
rwrist 17.5714
rhand -13.5383 7.0181
rfingers 7.12502
rthumb 12.5742 -22.5835
lclavicle 4.58199e-014 -5.56597e-015
lhumerus -27.8342 -5.77804 81.6698
lradius 36.6426
lwrist -2.44969
lhand 0.436152 25.5353
lfingers 7.12502
lthumb 26.0081 53.7754
rfemur -22.15 -4.53374 21.0866
rtibia 29.9553
rfoot -9.08265 -8.54426
rtoes 22.1221
lfemur -10.329 -4.25507 -13.6405
ltibia 43.6607
lfoot -1.09515 -15.6866
ltoes -26.5031
1117
root 4.38045 17.8745 3.06747 2.63084 39.6438 2.47744
lowerback 5.20742 -0.680868 -1.48921
upperback 1.7711 -0.956441 0.841804
thorax -1.05898 -0.476034 1.75711
lowerneck -22.2452 -5.20519 -12.3313
upperneck 25.3471 -4.09415 4.25581
head 12.4952 -2.43272 2.97548
rclavicle 3.62782e-015 -3.97569e-015
rhumerus -18.1761 19.5896 -82.8296
rradius 35.0382
rwrist 17.6624
rhand -12.4819 7.63714
rfingers 7.12502
rthumb 13.5926 -21.8991
lclavicle 3.62782e-015 -3.97569e-015
lhumerus -26.8022 -6.85683 80.4125
lradius 37.0377
lwrist -2.76634
lhand 0.673213 26.1326
lfingers 7.12502
lthumb 26.235 54.3391
rfemur -22.0088 -4.76616 21.2579
rtibia 29.9711
rfoot -9.08947 -8.51308
rtoes 22.1947
lfemur -10.5726 -4.19558 -13.4978
ltibia 44.174
lfoot -0.85757 -15.5646
ltoes -26.0871
1118
root 4.35314 17.8704 3.08974 2.462 39.8142 2.46676
lowerback 5.17101 -0.776164 -1.57319
upperback 1.78466 -1.08644 0.875876
thorax -1.01705 -0.541675 1.84615
lowerneck -22.2612 -5.40321 -12.4686
upperneck 25.206 -4.42761 4.58834
head 12.486 -2.5469 3.06496
rclavicle -3.76697e-014 6.75868e-015
rhumerus -16.8444 20.702 -81.3087
rradius 35.3104
rwrist 17.9061
rhand -11.5719 8.36288
rfingers 7.12502
rthumb 14.4695 -21.1126
lclavicle -3.76697e-014 6.75868e-015
lhumerus -25.535 -7.88881 78.8895
lradius 37.4059
lwrist -3.30017
lhand 0.746818 26.1058
lfingers 7.12502
lthumb 26.3055 54.3018
rfemur -21.8252 -4.91064 21.388
rtibia 29.9743
rfoot -9.10948 -8.57115
rtoes 21.927
lfemur -10.7146 -4.22742 -13.4148
ltibia 44.6494
lfoot -0.783283 -15.3116
ltoes -26.246
1119
root 4.32433 17.8693 3.1107 2.20783 39.9931 2.42473
lowerback 5.13584 -0.87234 -1.64114
upperback 1.85777 -1.21594 0.925004
thorax -0.914113 -0.60807 1.94074
lowerneck -22.2043 -5.54246 -12.5965
upperneck 24.9098 -4.69649 4.94792
head 12.396 -2.62584 3.173
rclavicle 6.66923e-014 7.55382e-015
rhumerus -15.1708 21.6071 -79.5149
rradius 35.437
rwrist 18.3621
rhand -10.6977 9.23829
rfingers 7.12502
rthumb 15.3117 -20.1749
lclavicle 6.66923e-014 7.55382e-015
lhumerus -24.029 -8.82861 77.1603
lradius 37.7428
lwrist -4.08406
lhand 0.808199 25.2357
lfingers 7.12502
lthumb 26.3643 53.4229
rfemur -21.5703 -4.89565 21.5048
rtibia 29.969
rfoot -9.22759 -8.72803
rtoes 22.0132
lfemur -10.7349 -4.21349 -13.3233
ltibia 45.1026
lfoot -0.893497 -14.9813
ltoes -26.6851
1120
root 4.2972 17.8684 3.13115 1.96413 40.1484 2.33632
lowerback 5.05277 -0.944399 -1.67471
upperback 1.87153 -1.31176 0.970631
thorax -0.847414 -0.65702 2.00999
lowerneck -22.1669 -5.67748 -12.5766
upperneck 24.7952 -4.96545 5.15647
head 12.3751 -2.71427 3.20082
rclavicle 3.4191e-014 2.78299e-015
rhumerus -13.3806 22.244 -77.5454
rradius 35.4696
rwrist 19.1013
rhand -10.1047 10.2212
rfingers 7.12502
rthumb 15.8828 -19.1474
lclavicle 3.4191e-014 2.78299e-015
lhumerus -22.4579 -9.85231 75.2226
lradius 38.163
lwrist -4.64793
lhand 1.20337 24.6576
lfingers 7.12502
lthumb 26.7425 52.7876
rfemur -21.3568 -4.85797 21.6685
rtibia 29.9365
rfoot -9.26199 -8.904
rtoes 21.6204
lfemur -10.7401 -4.12114 -13.2033
ltibia 45.5323
lfoot -1.18138 -14.5682
ltoes -27.1548
